<?xml version="1.0" encoding="UTF-8"?>
<svg version="1.1" xmlns="http://www.w3.org/2000/svg" width="773" height="403">
<path d="M0 0 C0.91754562 -0.00974854 1.83509125 -0.01949707 2.78044128 -0.02954102 C22.63673313 -0.19707197 41.81621953 -0.1016034 61.2890625 4.23828125 C62.17158691 4.42551758 63.05411133 4.61275391 63.96337891 4.80566406 C106.92453216 14.05441206 144.5187168 35.17386727 176.2890625 65.23828125 C177.68318359 66.55119141 177.68318359 66.55119141 179.10546875 67.890625 C207.98736013 95.8686734 228.62392121 134.59823041 235.2890625 174.23828125 C236.23007812 173.96113281 237.17109375 173.68398437 238.140625 173.3984375 C239.38585937 173.03621094 240.63109375 172.67398438 241.9140625 172.30078125 C243.75871094 171.76130859 243.75871094 171.76130859 245.640625 171.2109375 C274.082085 163.62857825 304.45958953 170.68849622 329.6015625 184.61328125 C354.91832899 200.02200147 372.71011088 224.71439742 380.2890625 253.23828125 C382.29652585 261.75386753 382.67681813 270.07204617 382.6640625 278.80078125 C382.66274826 279.78998062 382.66274826 279.78998062 382.66140747 280.79916382 C382.52943566 310.99513595 370.72219319 336.6289623 349.6640625 358.23828125 C340.19435224 367.60239242 329.91134281 374.22616547 317.9765625 380.11328125 C317.07703857 380.56582275 316.17751465 381.01836426 315.25073242 381.48461914 C298.98148189 389.19004677 282.94539439 389.81937596 265.25502014 389.73948669 C262.85096278 389.74338549 260.44690773 389.74903055 258.04285806 389.75625759 C252.84253068 389.76788983 247.64235833 389.76726411 242.44203758 389.75547791 C234.70901629 389.73799994 226.97612791 389.74362962 219.24309947 389.75364482 C205.42926128 389.77078736 191.61550274 389.76532808 177.80166624 389.75028763 C165.71703346 389.73721518 153.63242827 389.73204389 141.54778862 389.73460579 C140.74494096 389.7347662 139.9420933 389.73492662 139.11491693 389.7350919 C135.8556453 389.73575552 132.59637369 389.73645794 129.33710209 389.73721724 C98.7955924 389.7442333 68.25413128 389.72877501 37.71263396 389.70259378 C10.58827395 389.67946509 -16.53603274 389.6740971 -43.66040039 389.68432617 C-50.61075049 389.68692827 -57.5611006 389.6895133 -64.51145077 389.6919241 C-65.36717032 389.69222154 -66.22288986 389.69251899 -67.10454031 389.69282545 C-89.78746274 389.70044074 -112.47038081 389.69402816 -135.1533013 389.68322808 C-137.59390839 389.6820803 -140.03451548 389.68093712 -142.47512258 389.67980125 C-144.09407072 389.67904601 -145.71301885 389.67828036 -147.33196699 389.67750424 C-159.41278765 389.67184872 -171.4935945 389.67317385 -183.57441521 389.67773247 C-197.3070639 389.68284084 -211.03966096 389.67698421 -224.77229678 389.65683817 C-232.45546815 389.64585646 -240.13853801 389.64305443 -247.82171247 389.6521267 C-253.55816707 389.65796368 -259.29450913 389.64811069 -265.03094048 389.63212705 C-267.35158764 389.6280792 -269.67225024 389.62908806 -271.99289166 389.63564592 C-275.14688157 389.64379648 -278.30029983 389.63348284 -281.4542532 389.61859798 C-282.35524835 389.62533564 -283.25624351 389.63207329 -284.18454155 389.63901511 C-300.48917414 389.4901966 -311.79902366 380.48564817 -323.7109375 370.23828125 C-324.96197266 369.17287109 -324.96197266 369.17287109 -326.23828125 368.0859375 C-347.80685857 349.24324673 -363.04921558 324.8578219 -370.7109375 297.23828125 C-371.02675781 296.10648437 -371.34257812 294.9746875 -371.66796875 293.80859375 C-380.92680387 255.76983272 -373.54347876 216.62617736 -353.7109375 183.23828125 C-348.15202543 174.66069767 -341.45732069 166.89552626 -334.7109375 159.23828125 C-333.77894531 158.17673828 -333.77894531 158.17673828 -332.828125 157.09375 C-309.44325014 132.18833395 -272.76936735 115.81143272 -238.79248047 114.03320312 C-234.55669272 113.91081959 -230.32312491 113.90692154 -226.0859375 113.92578125 C-225.34402161 113.92594238 -224.60210571 113.92610352 -223.83770752 113.92626953 C-212.23783075 113.94377453 -201.06898117 114.7209312 -189.7109375 117.23828125 C-189.370625 116.5834375 -189.0303125 115.92859375 -188.6796875 115.25390625 C-179.371935 97.72760634 -167.41406273 82.48054583 -153.7109375 68.23828125 C-153.24010742 67.74553711 -152.76927734 67.25279297 -152.28417969 66.74511719 C-137.74399002 51.59356705 -120.904952 39.58086121 -102.7109375 29.23828125 C-102.06850098 28.86848145 -101.42606445 28.49868164 -100.76416016 28.11767578 C-70.7491617 10.98005591 -34.68132602 0.30521369 0 0 Z M-18.7109375 140.23828125 C-26.54438166 149.36898368 -30.59583501 160.10899355 -30.0859375 172.203125 C-28.62889103 183.99609487 -24.00714698 193.96170084 -14.81640625 201.6640625 C-7.17564975 207.31486175 -7.17564975 207.31486175 2.2890625 208.23828125 C-1.6709375 239.91828125 -5.6309375 271.59828125 -9.7109375 304.23828125 C9.4290625 304.23828125 28.5690625 304.23828125 48.2890625 304.23828125 C47.09796875 294.57998047 47.09796875 294.57998047 45.8828125 284.7265625 C45.38117795 280.64782672 44.87972144 276.56907064 44.37890625 272.49023438 C43.58393506 266.01581604 42.78830516 259.54148342 41.98876953 253.06762695 C41.34422803 247.84842273 40.70262681 242.62886472 40.06306458 237.40904808 C39.81851433 235.41742247 39.57290402 233.42592674 39.32621765 231.43456459 C38.98094916 228.64592153 38.63944875 225.856841 38.29882812 223.06762695 C38.19597 222.24403687 38.09311188 221.42044678 37.98713684 220.57189941 C37.52645085 216.76843922 37.16465216 213.07872844 37.2890625 209.23828125 C37.83433594 209.03074219 38.37960937 208.82320313 38.94140625 208.609375 C50.37344922 203.93884804 58.7275706 196.62570005 63.609375 185.12890625 C67.75906858 172.99903272 67.41746917 162.03506939 62.2890625 150.23828125 C55.63976555 138.28519215 45.05410267 130.77914513 32.22265625 126.55859375 C14.48886155 121.79039112 -6.05119057 126.66337189 -18.7109375 140.23828125 Z " fill="#7045B9" transform="translate(381.7109375,5.76171875)"/>
<path d="M0 0 C0.75023437 0.19835449 1.50046875 0.39670898 2.2734375 0.60107422 C23.25040449 6.30350664 43.65900877 17.63366228 59.3515625 32.72265625 C61.21346888 34.16541309 62.69945281 34.59313467 65 35 C65.33 33.35 65.66 31.7 66 30 C92.35969764 51.31209596 108.38114016 85.67109264 112 119 C112.28254749 124.08721 112.33423819 129.15570226 112.3125 134.25 C112.30976578 135.26963837 112.30976578 135.26963837 112.30697632 136.30987549 C112.25941028 146.86643631 111.62667318 156.75061404 109 167 C108.77449463 167.97356445 108.77449463 167.97356445 108.54443359 168.96679688 C101.67970238 198.42169756 83.97115045 225.02043556 60.97363281 244.42459106 C57.99686443 246.90881189 57.99686443 246.90881189 55.57250977 249.61325073 C43.8074175 260.50309452 27.77318181 258.42927655 12.75216293 258.27739191 C8.62942757 258.24430507 4.50684611 258.26228765 0.3840332 258.27243042 C-6.53576165 258.2814381 -13.45446928 258.2499502 -20.37402344 258.19384766 C-28.33966179 258.12975584 -36.30334089 258.12978429 -44.26911831 258.1642772 C-51.97617753 258.1961613 -59.68252808 258.1824433 -67.38955688 258.14840317 C-70.64933482 258.1347663 -73.90853569 258.13661733 -77.16830444 258.15149307 C-81.01718507 258.16697897 -84.8638747 258.14206702 -88.71238327 258.08779526 C-90.11259844 258.07418907 -91.51302161 258.07365575 -92.91322708 258.08822632 C-108.32973149 258.22999465 -118.65066699 250.90963178 -130 241 C-130.85464844 240.25492188 -131.70929688 239.50984375 -132.58984375 238.7421875 C-135.08926314 236.52465752 -137.55169338 234.27372449 -140 232 C-140.60457031 231.44957031 -141.20914063 230.89914062 -141.83203125 230.33203125 C-167.78274534 205.71835629 -179.86587947 170.0030837 -181 135 C-181.57700172 100.32219662 -167.25212762 65.54045211 -143.46826172 40.51318359 C-141.9910012 38.99613792 -140.49904548 37.49549324 -139 36 C-138.15179688 35.14019531 -137.30359375 34.28039062 -136.4296875 33.39453125 C-119.86237037 17.46052135 -98.16011707 5.89645261 -76 0 C-75.29375488 -0.19464844 -74.58750977 -0.38929688 -73.85986328 -0.58984375 C-50.57223498 -6.74224113 -23.17725805 -6.40660032 0 0 Z " fill="#9265CC" transform="translate(194,131)"/>
<path d="M0 0 C4.86299196 3.74366286 9.24831885 7.98323889 13.63769531 12.26074219 C14.60255859 13.11539063 14.60255859 13.11539063 15.58691406 13.98730469 C31.18136327 28.16407669 41.57229014 52.4089601 42.81469727 73.2265625 C43.46977392 106.49714896 36.52097876 132.34710475 13.20117188 157.08520508 C-2.81986629 173.59457218 -26.43262787 186.51866926 -49.88386154 187.35014534 C-53.06510373 187.38390149 -56.24486027 187.38431929 -59.42626953 187.37426758 C-61.24174789 187.37448662 -61.24174789 187.37448662 -63.09390259 187.37471008 C-66.39925172 187.37413427 -69.7045378 187.36913128 -73.00987577 187.36213613 C-76.46919791 187.35586973 -79.92852096 187.35529619 -83.3878479 187.35411072 C-89.93252689 187.35100708 -96.4771891 187.34280675 -103.02186072 187.33276123 C-110.47530191 187.32157003 -117.92874391 187.31608207 -125.38219142 187.31106579 C-140.70890555 187.30062331 -156.03560295 187.28304263 -171.36230469 187.26074219 C-170.41777454 186.14792592 -169.47167707 185.03643984 -168.52493286 183.92550659 C-167.73490214 182.99685193 -167.73490214 182.99685193 -166.92891121 182.04943657 C-164.79622242 179.61441003 -162.50528133 177.38058107 -160.16699219 175.14355469 C-159.19886584 174.20717036 -158.23169677 173.2697955 -157.26538086 172.33154297 C-156.52268448 171.61082611 -156.52268448 171.61082611 -155.76498413 170.87554932 C-146.06282405 161.41391303 -137.48316249 151.84684285 -130.36230469 140.26074219 C-129.93208008 139.57882812 -129.50185547 138.89691406 -129.05859375 138.19433594 C-112.47557857 111.8094642 -102.25612268 83.01908598 -97.36230469 52.26074219 C-97.17611572 51.15311523 -96.98992676 50.04548828 -96.7980957 48.90429688 C-95.29972406 39.11625851 -95.08549426 29.52821397 -95.15649414 19.64355469 C-95.17487781 17.00022787 -95.17700203 14.35725172 -95.17675781 11.71386719 C-95.19504952 3.1845324 -95.31157156 -5.26084504 -96.36230469 -13.73925781 C-94.15520485 -14.38929406 -91.94656576 -15.03410526 -89.73730469 -15.67675781 C-88.50753906 -16.03640625 -87.27777344 -16.39605469 -86.01074219 -16.76660156 C-57.14901778 -24.46100132 -24.00022955 -17.44310001 0 0 Z " fill="#C494E5" transform="translate(714.3623046875,200.7392578125)"/>
<path d="M0 0 C0.91754562 -0.00974854 1.83509125 -0.01949707 2.78044128 -0.02954102 C22.63673313 -0.19707197 41.81621953 -0.1016034 61.2890625 4.23828125 C62.17158691 4.42551758 63.05411133 4.61275391 63.96337891 4.80566406 C106.92453216 14.05441206 144.5187168 35.17386727 176.2890625 65.23828125 C177.68318359 66.55119141 177.68318359 66.55119141 179.10546875 67.890625 C207.98736013 95.8686734 228.62392121 134.59823041 235.2890625 174.23828125 C236.23007812 173.96113281 237.17109375 173.68398437 238.140625 173.3984375 C239.38585937 173.03621094 240.63109375 172.67398438 241.9140625 172.30078125 C243.75871094 171.76130859 243.75871094 171.76130859 245.640625 171.2109375 C274.082085 163.62857825 304.45958953 170.68849622 329.6015625 184.61328125 C354.91832899 200.02200147 372.71011088 224.71439742 380.2890625 253.23828125 C382.29652585 261.75386753 382.67681813 270.07204617 382.6640625 278.80078125 C382.66274826 279.78998062 382.66274826 279.78998062 382.66140747 280.79916382 C382.52943566 310.99513595 370.72219319 336.6289623 349.6640625 358.23828125 C340.19435224 367.60239242 329.91134281 374.22616547 317.9765625 380.11328125 C317.07703857 380.56582275 316.17751465 381.01836426 315.25073242 381.48461914 C298.98148189 389.19004677 282.94539439 389.81937596 265.25502014 389.73948669 C262.85096278 389.74338549 260.44690773 389.74903055 258.04285806 389.75625759 C252.84253068 389.76788983 247.64235833 389.76726411 242.44203758 389.75547791 C234.70901629 389.73799994 226.97612791 389.74362962 219.24309947 389.75364482 C205.42926128 389.77078736 191.61550274 389.76532808 177.80166624 389.75028763 C165.71703346 389.73721518 153.63242827 389.73204389 141.54778862 389.73460579 C140.74494096 389.7347662 139.9420933 389.73492662 139.11491693 389.7350919 C135.8556453 389.73575552 132.59637369 389.73645794 129.33710209 389.73721724 C98.7955924 389.7442333 68.25413128 389.72877501 37.71263396 389.70259378 C10.58827395 389.67946509 -16.53603274 389.6740971 -43.66040039 389.68432617 C-50.61075049 389.68692827 -57.5611006 389.6895133 -64.51145077 389.6919241 C-65.36717032 389.69222154 -66.22288986 389.69251899 -67.10454031 389.69282545 C-89.78746274 389.70044074 -112.47038081 389.69402816 -135.1533013 389.68322808 C-137.59390839 389.6820803 -140.03451548 389.68093712 -142.47512258 389.67980125 C-144.09407072 389.67904601 -145.71301885 389.67828036 -147.33196699 389.67750424 C-159.41278765 389.67184872 -171.4935945 389.67317385 -183.57441521 389.67773247 C-197.3070639 389.68284084 -211.03966096 389.67698421 -224.77229678 389.65683817 C-232.45546815 389.64585646 -240.13853801 389.64305443 -247.82171247 389.6521267 C-253.55816707 389.65796368 -259.29450913 389.64811069 -265.03094048 389.63212705 C-267.35158764 389.6280792 -269.67225024 389.62908806 -271.99289166 389.63564592 C-275.14688157 389.64379648 -278.30029983 389.63348284 -281.4542532 389.61859798 C-282.35524835 389.62533564 -283.25624351 389.63207329 -284.18454155 389.63901511 C-300.48917414 389.4901966 -311.79902366 380.48564817 -323.7109375 370.23828125 C-324.96197266 369.17287109 -324.96197266 369.17287109 -326.23828125 368.0859375 C-347.80685857 349.24324673 -363.04921558 324.8578219 -370.7109375 297.23828125 C-371.02675781 296.10648437 -371.34257812 294.9746875 -371.66796875 293.80859375 C-380.92680387 255.76983272 -373.54347876 216.62617736 -353.7109375 183.23828125 C-348.15202543 174.66069767 -341.45732069 166.89552626 -334.7109375 159.23828125 C-333.77894531 158.17673828 -333.77894531 158.17673828 -332.828125 157.09375 C-309.44325014 132.18833395 -272.76936735 115.81143272 -238.79248047 114.03320312 C-234.55669272 113.91081959 -230.32312491 113.90692154 -226.0859375 113.92578125 C-225.34402161 113.92594238 -224.60210571 113.92610352 -223.83770752 113.92626953 C-212.23783075 113.94377453 -201.06898117 114.7209312 -189.7109375 117.23828125 C-189.370625 116.5834375 -189.0303125 115.92859375 -188.6796875 115.25390625 C-179.371935 97.72760634 -167.41406273 82.48054583 -153.7109375 68.23828125 C-153.24010742 67.74553711 -152.76927734 67.25279297 -152.28417969 66.74511719 C-137.74399002 51.59356705 -120.904952 39.58086121 -102.7109375 29.23828125 C-102.06850098 28.86848145 -101.42606445 28.49868164 -100.76416016 28.11767578 C-70.7491617 10.98005591 -34.68132602 0.30521369 0 0 Z M-143.24853516 67.82714844 C-144.77898457 69.3039427 -146.32895267 70.75855575 -147.87890625 72.21484375 C-161.46783479 85.18044564 -176.31507902 102.31619653 -182.7109375 120.23828125 C-182.16381104 120.43349365 -181.61668457 120.62870605 -181.05297852 120.82983398 C-161.49806049 127.87221806 -144.94626846 136.21359992 -128.7109375 149.23828125 C-128.12538086 149.68518311 -127.53982422 150.13208496 -126.93652344 150.5925293 C-125.47134454 151.73884422 -124.08357954 152.98263762 -122.7109375 154.23828125 C-122.3359375 157.55078125 -122.3359375 157.55078125 -122.7109375 160.23828125 C-126.99137192 158.81918227 -129.67731804 156.72943754 -133.0234375 153.73828125 C-148.59207135 140.34195796 -167.91944512 130.5774915 -187.7109375 125.23828125 C-188.42008301 125.04218262 -189.12922852 124.84608398 -189.85986328 124.64404297 C-213.14390457 118.49496448 -240.5383246 118.83296493 -263.7109375 125.23828125 C-264.46117187 125.43663574 -265.21140625 125.63499023 -265.984375 125.83935547 C-300.65107952 135.26324119 -331.46228441 159.46172268 -349.7109375 190.23828125 C-368.61195156 223.34394386 -373.30451 261.17131397 -363.29760742 297.94799805 C-357.01747453 319.50392989 -345.91338069 337.8393255 -330.7109375 354.23828125 C-329.45990234 355.59566406 -329.45990234 355.59566406 -328.18359375 356.98046875 C-321.95926659 363.45699717 -315.1542153 369.21463682 -307.7109375 374.23828125 C-306.84907971 374.88865081 -305.98722191 375.53902037 -305.09924722 376.2090981 C-293.92361054 383.75004675 -283.30413074 383.35423953 -270.16741943 383.22723389 C-267.77989426 383.23359378 -265.3923763 383.24345566 -263.00487828 383.25649953 C-257.8310036 383.27674141 -252.65776639 383.27234807 -247.48394585 383.24575806 C-239.78993762 383.20632602 -232.09644043 383.2130581 -224.40237178 383.22875924 C-211.45229016 383.25381214 -198.50250055 383.24122701 -185.55245209 383.20638275 C-172.72499635 383.17187689 -159.89767182 383.15230324 -147.07016754 383.15305328 C-146.27104736 383.15308387 -145.47192717 383.15311445 -144.64859122 383.15314596 C-141.40438944 383.1533096 -138.16018769 383.15357207 -134.91598593 383.15396921 C-104.49871123 383.15759128 -74.08163598 383.11785156 -43.6644305 383.05625055 C-16.66802227 383.00177851 10.32824429 382.97680469 37.32470703 382.97949219 C39.05765153 382.97965383 40.79059603 382.97981527 42.52354053 382.97997651 C43.38029325 382.98005791 44.23704597 382.98013931 45.11976089 382.98022318 C49.43297093 382.98062639 53.74618097 382.98098872 58.05939102 382.98130417 C58.91040736 382.98137102 59.7614237 382.98143788 60.63822842 382.98150676 C83.22375418 382.98296932 105.80926228 382.96479211 128.39477324 382.93999791 C129.19880985 382.93911682 130.00284646 382.93823574 130.83124782 382.93732795 C134.06414428 382.93377523 137.29704074 382.93022154 140.52993708 382.92656413 C151.75343762 382.91395119 162.97692421 382.90789055 174.20043136 382.90611817 C188.67085355 382.90372402 203.14115912 382.88763412 217.61153159 382.84839234 C225.25525062 382.82801823 232.89879885 382.81826586 240.54254367 382.82437707 C246.26400478 382.82768352 251.985251 382.8099078 257.70664808 382.78417507 C260.01069564 382.77696938 262.31477598 382.77635371 264.61882451 382.78324422 C280.98282041 382.82673859 296.83771136 381.72375557 312.0390625 375.05078125 C313.07172241 374.60968018 313.07172241 374.60968018 314.12524414 374.15966797 C325.5899284 369.07334437 335.31431107 361.98486104 344.2890625 353.23828125 C345.07023438 352.50738281 345.85140625 351.77648437 346.65625 351.0234375 C363.88141825 334.52323425 374.80799639 310.53881028 375.625 286.671875 C376.02939935 255.51323676 368.36502372 229.95066658 346.2890625 207.23828125 C345.66644531 206.55378906 345.04382813 205.86929688 344.40234375 205.1640625 C327.93874556 187.59598812 302.45495198 176.69437791 278.50390625 175.90234375 C276.07826648 175.87308731 273.65237716 175.86055616 271.2265625 175.86328125 C269.95901123 175.86271729 268.69145996 175.86215332 267.38549805 175.86157227 C257.11955302 175.9810576 245.67629061 176.5446672 236.2890625 181.23828125 C236.35907471 181.80321289 236.42908691 182.36814453 236.5012207 182.95019531 C237.45156241 191.73938567 237.47518096 200.50454668 237.47436523 209.33398438 C237.47654647 211.96891576 237.49474613 214.60342379 237.51367188 217.23828125 C237.60849255 244.43553165 237.60849255 244.43553165 233.71557617 249.13964844 C233.24482666 249.50219727 232.77407715 249.86474609 232.2890625 250.23828125 C231.2990625 249.90828125 230.3090625 249.57828125 229.2890625 249.23828125 C229.42908691 248.23804932 229.56911133 247.23781738 229.71337891 246.20727539 C231.20184578 235.00752347 231.69075564 223.96738412 231.6640625 212.67578125 C231.66351868 211.80287445 231.66297485 210.92996765 231.66241455 210.03060913 C231.6217448 195.7742353 230.67799692 182.13680771 227.2890625 168.23828125 C227.08007324 167.35269531 226.87108398 166.46710938 226.65576172 165.5546875 C215.56451913 119.76073307 186.42687312 77.7707673 148.2890625 50.23828125 C147.64050293 49.76712891 146.99194336 49.29597656 146.32373047 48.81054688 C119.22414966 29.36375787 88.84090436 17.03643827 56.2890625 10.23828125 C55.05494629 9.97144531 55.05494629 9.97144531 53.79589844 9.69921875 C-15.40207075 -4.55324405 -92.81400659 19.03515679 -143.24853516 67.82714844 Z " fill="#000000" transform="translate(381.7109375,5.76171875)"/>
<path d="M0 0 C11.37234879 8.64466366 19.81682218 19.49746162 22 34 C23.2670779 47.5577335 20.22419019 60.04049156 12 71 C7.13509407 76.64112468 1.78774441 81.76076466 -5 85 C-5.66 85 -6.32 85 -7 85 C-6.86219116 86.11198257 -6.72438232 87.22396515 -6.58239746 88.36964417 C-5.28294109 98.85953244 -3.98795968 109.34996477 -2.69733429 119.84094334 C-2.03370156 125.23416751 -1.36850504 130.62718911 -0.69970703 136.01977539 C-0.05409434 141.22589072 0.58737437 146.43250155 1.22599792 151.63947868 C1.47011934 153.62392236 1.71572225 155.60818437 1.96284485 157.59225655 C2.30925617 160.37556945 2.65034927 163.15948718 2.99023438 165.94360352 C3.14452156 167.16820282 3.14452156 167.16820282 3.30192566 168.4175415 C3.39448135 169.18443802 3.48703705 169.95133453 3.58239746 170.74147034 C3.70407413 171.72732793 3.70407413 171.72732793 3.82820892 172.73310184 C4.06166911 175.8137652 4 178.91050321 4 182 C-19.1 182 -42.2 182 -66 182 C-64.85117953 164.7676929 -64.85117953 164.7676929 -63.96850586 157.86157227 C-63.87082413 157.06934265 -63.7731424 156.27711304 -63.67250061 155.46087646 C-63.35726916 152.91220557 -63.03614901 150.36431785 -62.71484375 147.81640625 C-62.49170038 146.02185079 -62.26893409 144.22724842 -62.04652405 142.43260193 C-61.46666077 137.7617652 -60.8817568 133.09157382 -60.29571533 128.42150879 C-59.69598527 123.63490878 -59.10114258 118.84770158 -58.50585938 114.06054688 C-57.34195839 104.70643869 -56.17271873 95.35300652 -55 86 C-55.77939941 85.69602295 -56.55879883 85.3920459 -57.36181641 85.07885742 C-69.52681896 80.10410763 -77.3683135 70.55441622 -83 59 C-87.59760963 47.66031264 -87.2971378 35.57926983 -83.328125 24.10546875 C-77.51297454 10.5082787 -67.57943293 0.27569267 -53.80078125 -5.29296875 C-35.41839345 -11.55609473 -16.65019174 -10.55445531 0 0 Z M-69 12 C-76.83344416 21.13070243 -80.88489751 31.8707123 -80.375 43.96484375 C-78.91795353 55.75781362 -74.29620948 65.72341959 -65.10546875 73.42578125 C-57.46471225 79.0765805 -57.46471225 79.0765805 -48 80 C-51.96 111.68 -55.92 143.36 -60 176 C-40.86 176 -21.72 176 -2 176 C-3.19109375 166.34169922 -3.19109375 166.34169922 -4.40625 156.48828125 C-4.90788455 152.40954547 -5.40934106 148.33078939 -5.91015625 144.25195312 C-6.70512744 137.77753479 -7.50075734 131.30320217 -8.30029297 124.8293457 C-8.94483447 119.61014148 -9.58643569 114.39058347 -10.22599792 109.17076683 C-10.47054817 107.17914122 -10.71615848 105.18764549 -10.96284485 103.19628334 C-11.30811334 100.40764028 -11.64961375 97.61855975 -11.99023438 94.8293457 C-12.0930925 94.00575562 -12.19595062 93.18216553 -12.30192566 92.33361816 C-12.76261165 88.53015797 -13.12441034 84.84044719 -13 81 C-12.45472656 80.79246094 -11.90945313 80.58492188 -11.34765625 80.37109375 C0.08438672 75.70056679 8.4385081 68.3874188 13.3203125 56.890625 C17.47000608 44.76075147 17.12840667 33.79678814 12 22 C5.35070305 10.0469109 -5.23495983 2.54086388 -18.06640625 -1.6796875 C-35.80020095 -6.44789013 -56.34025307 -1.57490936 -69 12 Z " fill="#000000" transform="translate(432,134)"/>
</svg>
