<svg xmlns="http://www.w3.org/2000/svg"  viewBox="0 0 48 48" width="48px" height="48px" baseProfile="basic"><path d="M32.5,14C30.037,14,22,14.288,22,18v18c0,2.952,5.656,4,10.5,4S43,38.952,43,36V18.1C43,15.073,37.344,14,32.5,14z"/><path fill="#fff" d="M32.5,13c-5.2,0-9.5,1.1-9.5,3v18c0,1.8,4.3,3,9.5,3s9.5-1.2,9.5-3l0,0V16.1C42,14.2,37.7,13,32.5,13	z"/><path d="M32.5,38C27.656,38,22,36.952,22,34V16c0-3.712,8.037-4,10.5-4c4.844,0,10.5,1.073,10.5,4.1V34C43,36.952,37.344,38,32.5,38	z M32.5,14c-5.66,0-8.5,1.282-8.5,2v18c0,0.551,2.614,2,8.5,2s8.5-1.449,8.5-2V16.1C41,15.367,38.081,14,32.5,14z"/><path d="M42,21.5V24c-2.6,1.9-7.6,2-9.5,2c-1.9,0-6.7-0.2-9.5-1.7v-2.8c0,1.4,4.3,2.5,9.5,2.5S42,22.9,42,21.5z M32.5,18	c-5.2,0-9.5-1.1-9.5-2.5v2.8c2.8,1.5,7.6,1.7,9.5,1.7c1.9,0,6.9-0.1,9.5-2v-2.5C42,16.9,37.7,18,32.5,18z M32.5,30	c-5.2,0-9.5-1.1-9.5-2.5v2.8c2.8,1.5,7.6,1.7,9.5,1.7c1.9,0,6.8-0.2,9.5-2v-2.5C42,28.9,37.7,30,32.5,30z"/><path d="M27,41V11V8c0-0.3-0.134-0.583-0.366-0.773s-0.536-0.267-0.83-0.207l-20,4C5.336,11.113,5,11.523,5,12v26.36	c0,1.425,1.014,2.663,2.412,2.942l18.392,3.678C25.869,44.994,25.935,45,26,45c0.229,0,0.454-0.079,0.634-0.227	C26.866,44.583,27,44.3,27,44V41z"/><path fill="#fff" d="M26,42L7.608,38.322C6.673,38.135,6,37.314,6,36.36V10l20-4V42z"/><path d="M26,43c-0.065,0-0.131-0.007-0.196-0.02L7.412,39.302C6.015,39.023,5,37.786,5,36.36V10c0-0.477,0.336-0.887,0.804-0.98	l20-4c0.294-0.057,0.598,0.018,0.83,0.207C26.866,5.417,27,5.7,27,6v36c0,0.3-0.134,0.583-0.366,0.773	C26.454,42.921,26.229,43,26,43z M7,10.819V36.36c0,0.476,0.338,0.888,0.804,0.98L25,40.78V7.22L7,10.819z"/><path d="M17.4,16.5c-1.1,0.1-2.2,0.2-3.3,0.2c-1.4,5-2.8,10-4.1,15c0.9,0.1,1.8,0.1,2.7,0.2c0.3-1.1,0.6-2.2,0.8-3.4	c1.4,0.1,2.9,0.1,4.3,0.1c0.3,1.2,0.6,2.4,0.9,3.6c1.1,0.1,2.1,0.2,3.2,0.3C20.5,27.2,19,21.8,17.4,16.5z M14.2,26	c0.5-2.2,1.2-4.4,1.5-6.7c0.4,2.3,1.1,4.4,1.6,6.7C16.2,26,15.2,26,14.2,26z"/></svg>