<svg xmlns="http://www.w3.org/2000/svg"  viewBox="0 0 50 50" width="50px" height="50px"><path d="M 28.875 0 C 28.855469 0.0078125 28.832031 0.0195313 28.8125 0.03125 L 0.8125 5.34375 C 0.335938 5.433594 -0.0078125 5.855469 0 6.34375 L 0 43.65625 C -0.0078125 44.144531 0.335938 44.566406 0.8125 44.65625 L 28.8125 49.96875 C 29.101563 50.023438 29.402344 49.949219 29.632813 49.761719 C 29.859375 49.574219 29.996094 49.296875 30 49 L 30 44 L 42 44 C 43.09375 44 44 43.09375 44 42 L 44 36 L 49 36 C 49.550781 36 50 35.550781 50 35 L 50 6 C 50 5.449219 49.550781 5 49 5 L 35.21875 5 C 35.117188 4.972656 35.011719 4.960938 34.90625 4.96875 C 34.875 4.976563 34.84375 4.988281 34.8125 5 C 34.800781 5 34.792969 5 34.78125 5 C 34.71875 5.015625 34.652344 5.035156 34.59375 5.0625 C 34.539063 5.089844 34.488281 5.121094 34.4375 5.15625 C 34.40625 5.175781 34.375 5.195313 34.34375 5.21875 C 34.269531 5.28125 34.207031 5.355469 34.15625 5.4375 C 34.117188 5.496094 34.085938 5.558594 34.0625 5.625 C 34.027344 5.714844 34.007813 5.808594 34 5.90625 C 34 5.917969 34 5.925781 34 5.9375 C 33.992188 6 33.992188 6.0625 34 6.125 L 34 14 L 30 14 L 30 1 C 30.003906 0.710938 29.878906 0.4375 29.664063 0.246094 C 29.449219 0.0546875 29.160156 -0.0351563 28.875 0 Z M 28 2.1875 L 28 14.6875 C 27.941406 14.882813 27.941406 15.085938 28 15.28125 L 28 42.8125 C 27.972656 42.945313 27.972656 43.085938 28 43.21875 L 28 47.8125 L 2 42.84375 L 2 7.15625 Z M 37.125 7 L 48 7 L 48 34 L 44 34 L 44 16 C 44 15.511719 43.800781 15.070313 43.5 14.71875 C 43.472656 14.675781 43.441406 14.632813 43.40625 14.59375 Z M 36 8.78125 L 40.3125 14 L 36 14 Z M 8.15625 15.65625 L 8.15625 34.375 L 12.375 34.375 L 12.375 27.9375 L 14.375 27.9375 C 16.636719 27.9375 18.460938 27.347656 19.8125 26.1875 C 21.164063 25.027344 21.84375 23.503906 21.84375 21.625 C 21.84375 17.648438 19.464844 15.65625 14.75 15.65625 Z M 30 16 L 41.96875 16 C 41.980469 16.011719 41.988281 16.019531 42 16.03125 L 42 34.8125 C 41.972656 34.945313 41.972656 35.085938 42 35.21875 L 42 42 L 30 42 L 30 39 L 38 39 L 38 37 L 30 37 L 30 34 L 38 34 L 38 32 L 30 32 L 30 29 L 38 29 L 38 27 L 30 27 L 30 24 L 38 24 L 38 20 L 30 20 Z M 12.375 18.90625 L 14.03125 18.90625 C 16.273438 18.90625 17.40625 19.859375 17.40625 21.78125 C 17.40625 23.746094 16.273438 24.71875 14.03125 24.71875 L 12.375 24.71875 Z"/></svg>